<?xml version="1.0" encoding="utf-8"?>
<!-- Generator: Adobe Illustrator 21.1.0, SVG Export Plug-In . SVG Version: 6.00 Build 0)  -->
<svg version="1.1" id="Layer_1" xmlns="http://www.w3.org/2000/svg" xmlns:xlink="http://www.w3.org/1999/xlink" x="0px" y="0px"
	 viewBox="0 0 377 207.8" style="enable-background:new 0 0 377 207.8;" xml:space="preserve">
<style type="text/css">
	.st0{fill:url(#SVGID_1_);}
	.st1{fill:#007774;}
	.st2{fill:#8ECBC7;}
	.st3{fill:#F5FAF4;}
	.st4{fill:#DBF0EC;}
	.st5{fill:#009491;}
	.st6{fill:#B0DFDB;}
	.st7{fill:#24ADAE;}
</style>
<linearGradient id="SVGID_1_" gradientUnits="userSpaceOnUse" x1="120.3577" y1="26.4088" x2="248.0768" y2="26.4088">
	<stop  offset="0" style="stop-color:#92D7E7"/>
	<stop  offset="0.5225" style="stop-color:#FFFFFF"/>
	<stop  offset="1" style="stop-color:#92D7E7"/>
</linearGradient>
<polygon class="st0" points="248.1,26.6 239.8,24.6 222.5,21.6 142,19.8 120.8,26.5 120.4,26.6 120.4,28.6 120.8,28.9 137.4,33 
	239.1,32.6 248.1,28.6 "/>
<polygon class="st1" points="248.1,26.6 244,25.8 126.1,25.8 120.4,26.6 126.8,22.2 141.4,10 144.3,5.6 147.4,6.7 221.7,6.7 
	224,5.7 224.2,5.6 "/>
<polygon class="st1" points="144.9,5.7 148.9,13 138.7,21 120.4,26.6 144.3,5.6 "/>
<polygon class="st2" points="164.2,8.8 156.9,5.7 156.4,5.6 155.7,5.7 153.8,6.6 148.4,9.3 143.4,13.9 143.4,13.9 144.4,21 
	147.5,26.4 148.2,26.6 148.2,26.6 149,26.5 159.9,22.2 167,13.9 "/>
<polygon class="st3" points="201,12 184.6,5.7 184.2,5.6 183.8,5.7 167.6,12.6 167,13.9 167.2,15.7 174.2,21.8 183.5,26.5 
	184.2,26.6 185,26.5 201.5,14 "/>
<polygon class="st4" points="167,13.9 156.4,5.6 184.2,5.6 "/>
<polygon class="st2" points="201.5,13.7 205.3,9 212,5.6 220.8,9.3 224.5,13.1 225.1,13.9 224.8,21 221.1,26.5 220.3,26.6 
	219.3,26.4 209.4,22.2 201.6,14.1 201.4,13.9 "/>
<polygon class="st5" points="143.4,13.9 144.3,5.6 156.4,5.6 "/>
<polygon class="st6" points="201.4,13.9 184.2,5.6 212,5.6 "/>
<polygon class="st6" points="169.8,17 167,13.9 148.2,26.6 166.1,26.6 166.2,26.6 167.4,26.2 182.2,26.1 "/>
<polygon class="st4" points="166.2,26.6 184.2,26.6 167,13.9 "/>
<polygon class="st7" points="143.4,13.9 138.7,17.9 125.6,25.1 122.4,26.2 127.4,25.6 132.8,26 134,26.6 134.2,26.6 148.2,26.6 "/>
<polygon class="st5" points="225.1,13.9 224.1,5.6 212,5.6 "/>
<polygon class="st7" points="225.1,13.9 226.9,15.2 241.6,24.4 247.6,26.4 242.6,25.9 236.1,26.1 234.4,26.6 234.2,26.6 220.3,26.6 
	"/>
<polygon class="st5" points="225.1,13.9 248.1,26.6 234.4,26.6 "/>
<polygon class="st5" points="143.4,13.9 120.4,26.6 134,26.6 "/>
<polygon class="st6" points="217.9,26.1 203.5,17.5 201.4,13.9 184.2,26.6 202.1,26.6 202.2,26.6 203.3,26.2 "/>
<polygon class="st7" points="202.2,26.6 220.3,26.6 201.4,13.9 "/>
<polygon class="st7" points="210.4,64.4 201.6,74.2 201,74.8 199.1,75.3 189.6,84 184.2,91.3 167.4,74.7 165.4,72.4 127,31.6 
	123.5,29.3 148.2,28.7 148.9,28.8 157.6,30.1 165.8,28.7 166.3,28.7 166.6,28.8 175,29.8 183.7,28.7 184.2,28.7 184.5,28.7 
	192.9,29.9 201.8,28.7 202.1,28.7 202.8,28.7 210.5,30.1 219.6,28.7 220.3,28.7 220.6,28.7 226.6,29.8 234.1,28.7 234.7,28.7 
	235.2,28.7 244.2,30.3 "/>
<polygon class="st4" points="184.2,91.3 166.3,28.7 173.5,31 181.7,30.3 184.2,28.7 188.2,29.7 200,29.9 202.1,28.7 "/>
<polygon class="st6" points="184.2,28.7 166.7,28.7 166.3,28.7 165.7,28.8 164.5,30.5 161.7,40.2 178.8,72.3 "/>
<polygon class="st2" points="166.3,28.7 148.2,28.7 178.8,72.3 "/>
<polygon class="st7" points="201.9,73.8 216,48.5 220.3,30.1 220.3,28.7 218.7,29.5 201.4,46.9 189.7,72.2 184.2,91.3 201,74.8 "/>
<polygon class="st6" points="184.2,28.7 202,28.7 202.1,28.7 202.3,28.7 202.6,29.2 205,38.5 189.7,72.2 "/>
<polygon class="st2" points="202.1,28.7 220.3,28.7 189.7,72.2 "/>
<polygon class="st1" points="165.7,71.8 146.3,30.5 134,28.7 133.8,28.7 133.7,28.7 120.4,28.7 167.4,74.7 "/>
<polygon class="st1" points="202.2,72.7 222.1,31.8 234.6,28.7 234.7,28.7 234.9,28.7 248.1,28.7 201,74.8 "/>
<polygon class="st5" points="220.3,28.7 234.7,28.7 201,74.8 "/>
<polygon class="st5" points="148.2,28.7 133.8,28.7 167.4,74.7 "/>
<path class="st2" d="M363.1,122c-3.1,0-6.5,0.6-9.8,1.7c-2.4-3.2-4.6-6.3-4.6-9.7c0-9.7,8.7-10.9,10-10.9c1.1,0,1.9-1.5,1.9-2.3
	c0-0.6-4.8-9.3-11.3-9.3c-6.3,0-12.7,10-12.7,17.7c0,1.6,0.3,3.2,0.8,4.8c-2.4,4.8-5.1,10.2-7,13.8c-1.5,3-3.9,7.3-7.3,11
	c0.5-1.4,0.8-3.2,0.8-5.1c0-7.2-9.8-13-9.8-20c0-9.7,8.7-10.8,10-10.8c1.1,0,1.7-1.5,1.7-2.2c0-0.7-4.8-9.3-11.1-9.3
	c-6.3,0-12.6,10-12.6,17.6c0,1.6,0.3,3.3,0.8,4.9c-3.1,6.5-6.1,11.8-6.6,12.9c-0.2,0.4-0.3,0.7-0.4,1c-3.4,5.9-10.2,16.6-20.5,16.6
	c-3.7,0-5.2-2.6-5.2-6.4c0-3.2,1.1-7.2,3-11.2c1,0.8,3,1.9,5.2,1.9c10.9,0,20-19.3,20-24.2c0-1.7-2.5-2.6-4.9-2.6
	c-1.9,0-3.6,0.4-4.3,1.1c-2.8-2.7-7.1-5.2-12.1-5.2c-6.3,0-18.6,17.9-21.1,31.6c-4.2,6.7-8.5,11.2-12.3,13.4c-1.9,1-3.6,1.7-4.7,1.7
	c-1.3,0-2.1-0.8-2.1-2.7c0-4.2,2-8.5,3.6-12.7c9.2-6.2,27.3-34.7,27.3-42.1c0-5.9-7.9-11-13.3-11c-7.4,0-29.8,41.3-31.4,57.3
	c-4.9,8.4-8.9,13-11.2,13c-0.8,0-0.9-1.2-0.9-1.3c0-9.7,9.6-26.3,9.6-31.3c0-4-7.5-11.1-13.3-11.1c-8.6,0-24.3,34.7-24.9,34.7
	c0,0-0.1-0.1-0.1-0.3c0-5.8,10.5-23,10.5-28c0-4-7.6-11.1-13.4-11.1c-8.6,0-26.1,35-26.6,35c-0.1,0-0.1-0.1-0.1-0.2
	c0-6,12.4-24.3,12.4-26.3c0-3.3-6.3-12.1-11.9-12.1c-3.1,0-17.3,30.9-17.3,40.5c0,0.7,0.1,1.3,0.2,1.9c-2.1,3.2-4.2,5.8-5.4,5.8
	c-0.6,0-1.6-0.7-1.6-3.7c0-5.6,5.2-15.4,5.2-18.3c0-1.9-7.4-8.3-12-8.3c-0.4,0-0.8,0.2-1.2,0.4c0.1-0.3,0.2-0.6,0.2-1
	c0-3.7-8.6-12.6-14.9-12.6c-8,0-23.7,20.9-26,34c-3.8,5.4-9.5,11.3-17.2,11.3c-3.7,0-5.2-2.6-5.2-6.4c0-3.2,1.1-7.2,3-11.2
	c1,0.8,3,1.9,5.2,1.9c10.9,0,20-19.3,20-24.2c0-1.7-2.5-2.6-4.9-2.6c-1.9,0-3.6,0.4-4.3,1.1c-2.8-2.7-7.1-5.2-12.1-5.2
	c-6.7,0-20.3,20.4-21.4,34.3c-1.3,2.1-2.9,4.5-4.8,6.6c0.4-1.4,0.7-3.1,0.7-5c0-7.2-9.8-13-9.8-20.1c0-9.6,8.7-10.8,10-10.8
	c1.1,0,1.7-1.5,1.7-2.2c0-0.6-4.7-9.3-11.1-9.3c-6.3,0-12.6,10-12.6,17.6c0,1.6,0.3,3.2,0.8,4.8l-5,10.1c-0.7-0.3-1.3-0.5-2-0.5
	c-4.7,0-7.2,5.1-7.2,10c0,9.1,10.3,15.7,19.1,15.7c9,0,15.9-6.9,20.3-12.9c2,8,14.2,11.8,18.5,11.8c7.8,0,13.9-5.1,18.2-10.3
	c1.4,7,11.7,9.7,13.9,9.7c0.9,0,2.2-0.8,3.6-2.3c4.5-4.4,15.3-20.7,16.8-20.7c0,0-2.3,6.8-2.3,11.1c0,8.3,10.2,12.2,17.4,12.2
	c2.1,0,5.2-3.8,8-8c3.1,4.3,9.6,6.3,11.5,6.3c1.3,0,3.4-1.5,3.4-3.2c0-5.1,18.6-38.5,23.6-38.5c0.2,0,0.3,0.1,0.3,0.4
	c0,2.9-9.6,19.1-9.6,29.9c0,7.6,11.7,11.9,14.2,11.9c1.2,0,3.1-1,3.1-2.6c0-5,14.9-35,19.9-35c0.2,0,0.3,0.1,0.3,0.4
	c0,2.5-8.5,15.4-8.5,26.1c0,8.3,9.4,14.7,14.7,14.7c4.2,0,9.2-6.5,13-12.5c1.6,6.1,8.1,10.6,12.7,10.6c7.8,0,14.9-7.5,19.5-13.8
	c0.9,9,14.2,13.2,18.8,13.2c15.6,0,24.7-20.6,24.9-21.1c0,0,0-0.1,0-0.1c1.2-2.3,3-5.6,5-9.6c2.4,5.2,5.7,10.3,5.7,13.8
	c0,4.5-4.4,9.3-8.7,10.8c-1.9-1.1-4.1-2.1-6.8-2.1c-1.3,0-1.7,1.3-1.7,2c0,3.8,4,7.3,15.2,7.3c14.3,0,23.3-17.4,25.1-21
	c1.5-2.8,3.5-6.5,5.7-10.7c1.6,3.6,3.8,7.2,4.9,10.2c-8.7,4.8-15.7,11.4-15.7,15.8c0,4.3,11.4,6,14.3,6c2.9,0,16.3-2.1,16.3-15.4
	c0-3.1-1.7-5.9-3.8-8.6c2.8-0.7,5.6-1.2,8.4-1.2c4.7,0,5.3,2.7,5.3,3.3c0,0.6,0.1,0.9,0.6,0.9c1,0,3.6-2.2,3.6-3.4
	C372.7,123.9,369.1,122,363.1,122z M288.2,110.7c-2.2,10.5-9.3,15.4-11.5,15.4c-1.7,0-2.2-0.7-2.6-0.9
	C277.6,118.5,282.8,112.3,288.2,110.7z M264.8,87.5c0.5,0,0.6,0.4,0.6,0.8c0,4.2-14.1,27.4-22.7,36.2
	C250.6,107.4,263.5,87.5,264.8,87.5z M75.8,110.7c-2.2,10.5-9.3,15.4-11.5,15.4c-1.7,0-2.2-0.7-2.6-0.9
	C65.2,118.5,70.5,112.3,75.8,110.7z M17.5,143c-3.4,0-5.8-2.3-5.8-5c0-3.4,2.5-5.8,6.4-5.8c0.6,0,0.8-0.3,0.8-0.8
	c0-1.3-1.5-3.8-3.5-5.7l4.3-8.1c2.3,5.2,5.6,10.5,5.6,15.4C25.3,139.8,21.6,143,17.5,143z M95.5,143.4c-0.3,0-0.5-0.3-0.5-0.9
	c0-4.9,11.4-28.2,22.3-28.2c0.9,0,1.6,0,2.2-0.2C112,120.3,96.2,143.4,95.5,143.4z M332.8,143.2c-0.6,0-0.8-0.2-0.8-0.7
	c0-2,5-7.7,12.3-12.2c0.1,0.5,0.2,1,0.2,1.4C344.6,137.2,337.8,143.2,332.8,143.2z"/>
<path class="st7" d="M63.3,183.7c0-0.9,0.3-1.8,0.8-2.9c0.5-1.1,1-1.9,1.7-2.6c3.4,1.9,6.5,2.8,9,2.8c1.5,0,2.8-0.3,3.6-0.9
	c0.9-0.6,1.3-1.4,1.3-2.4c0-1.7-1.2-3-3.6-3.9l-3.6-1.4c-5.4-2-8.1-5.1-8.1-9.4c0-3,1.1-5.4,3.3-7.3c2.2-1.8,5.1-2.7,8.8-2.7
	c3.6,0,7.3,0.8,10.9,2.5c0,1-0.2,2-0.6,3.2c-0.5,1.1-1,2-1.7,2.5c-3.2-1.5-6.1-2.2-8.7-2.2c-1.2,0-2.2,0.3-2.9,0.8
	c-0.7,0.6-1.1,1.3-1.1,2.3c0,1.4,1.1,2.5,3.4,3.3l3.9,1.5c5.6,2.1,8.3,5.4,8.3,9.9c0,3.1-1.2,5.5-3.5,7.3c-2.3,1.8-5.5,2.7-9.6,2.7
	C70.9,187,67,185.9,63.3,183.7z"/>
<path class="st7" d="M117,173.7l1.9,5.1c0.9,2.7,2,4.5,3.1,5.2c-1.5,1.6-3.3,2.5-5.4,2.5c-1.2,0-2.2-0.3-2.8-0.9
	c-0.6-0.6-1.2-1.6-1.8-3.1l-2.3-6.1c-0.6-1.5-1.2-2.6-1.9-3.1c-0.7-0.5-1.5-0.8-2.4-0.8c-0.9,0-2,0-3.1,0.1v13.4
	c-1.2,0.2-2.5,0.3-3.8,0.3c-1.4,0-2.7-0.1-4-0.3V139l0.5-0.5h3c1.6,0,2.8,0.4,3.4,1.1c0.6,0.8,0.9,2,0.9,3.8V166l1.7-0.1
	c0.6,0,1.2-0.3,1.7-1l4.7-7.9c1.2-2.1,2.8-3.2,4.8-3.2c2,0,3.5,0,4.5,0.1l0.4,0.5l-6.3,10.6c-0.8,1.3-1.6,2.3-2.6,3
	C113.9,168.8,115.8,170.7,117,173.7z"/>
<path class="st7" d="M136.2,160.3v25.8c-1.2,0.2-2.5,0.3-3.9,0.3c-1.4,0-2.8-0.1-4.1-0.3v-22.8c0-2.3-1-3.5-2.9-3.5h-0.8
	c-0.2-0.7-0.3-1.7-0.3-2.8c0-1.1,0.1-2.1,0.3-2.9c1.5-0.2,3.1-0.3,4.7-0.3h1c1.9,0,3.3,0.6,4.4,1.7
	C135.7,156.7,136.2,158.3,136.2,160.3z M126.9,148.2c-0.4-1-0.6-2.1-0.6-3.2c0-1.1,0.2-2.2,0.6-3.2c1.1-0.6,2.5-0.9,4.2-0.9
	c1.7,0,3,0.3,4,0.9c0.4,1,0.6,2.1,0.6,3.2c0,1.1-0.2,2.2-0.6,3.2c-1,0.6-2.4,0.9-4.2,0.9C129,149.1,127.7,148.8,126.9,148.2z"/>
<path class="st7" d="M171.7,164.4v14.3c0,2.6,0.4,4.6,1.3,6.1c-1.4,1.1-3,1.7-4.7,1.7s-2.9-0.4-3.6-1.2c-0.6-0.8-1-2.1-1-3.8v-15.4
	c0-1.9-0.3-3.3-0.8-4.2c-0.5-0.8-1.4-1.3-2.8-1.3c-2.5,0-4.7,1.1-6.8,3.2v22.1c-1.2,0.2-2.5,0.3-3.9,0.3s-2.8-0.1-4.1-0.3v-32
	l0.5-0.4h3c2.5,0,3.9,1.3,4.4,3.9c3.1-2.8,6.3-4.1,9.4-4.1s5.4,1,6.9,3C170.9,158.5,171.7,161.2,171.7,164.4z"/>
<path class="st7" d="M212.2,166.2c0-3.7-1.2-5.5-3.5-5.5c-1.9,0-3.9,1.1-5.9,3.2v22.1c-1.2,0.2-2.5,0.3-3.9,0.3s-2.8-0.1-4.1-0.3
	v-31.9l0.5-0.5h3c2.5,0,4,1.3,4.5,4c3-2.8,6.1-4.3,9.3-4.3c3.3,0,5.6,1.6,7.1,4.6c3.3-3.1,6.7-4.6,10.1-4.6c2.7,0,4.8,0.9,6.2,2.8
	c1.4,1.9,2.2,4.3,2.2,7.4v15.1c0,2.6,0.4,4.6,1.3,6.1c-1.3,1.1-2.9,1.7-4.7,1.7c-1.8,0-3-0.4-3.6-1.2c-0.6-0.8-1-2.1-1-3.8v-15.4
	c0-3.6-1.2-5.4-3.6-5.4c-1.8,0-3.8,1.1-5.9,3.4v22c-1.2,0.2-2.5,0.3-3.9,0.3c-1.4,0-2.8-0.1-4.1-0.3V166.2z"/>
<path class="st7" d="M246.4,185.7c-0.4-0.9-0.6-2-0.6-3.5c0-1.4,0.2-2.6,0.6-3.5c1.2-0.6,2.6-1,4.5-1s3.2,0.3,4.3,1
	c0.4,0.9,0.6,2.1,0.6,3.5c0,1.4-0.2,2.6-0.6,3.5c-0.9,0.6-2.4,1-4.3,1C248.9,186.6,247.4,186.3,246.4,185.7z"/>
<path class="st7" d="M271,187c-3.6,0-6.4-1.5-8.4-4.5c-1.9-3-2.9-7.1-2.9-12.3c0-5.2,1.2-9.3,3.7-12.3c2.5-3,5.5-4.5,8.9-4.5
	c2.2,0,4.5,0.6,6.8,1.8V139l0.4-0.5h3.1c1.6,0,2.7,0.4,3.4,1.1c0.6,0.8,1,2,1,3.8v33.4c0,2.7,0.6,4.5,1.8,5.6
	c-0.2,0.7-0.6,1.5-1.1,2.3c-0.5,0.8-1.1,1.4-1.6,1.8c-2.7-0.4-4.6-1.7-5.7-3.9C277.7,185.5,274.7,187,271,187z M273,180.4
	c2.4,0,4.4-1.2,6.1-3.5v-15.2c-2.2-1.3-4.1-2-5.7-2c-1.6,0-3,0.9-4,2.8c-1,1.9-1.5,4.5-1.5,7.9s0.5,5.9,1.4,7.6
	C270.3,179.6,271.5,180.4,273,180.4z"/>
<path class="st7" d="M296,185.7c-0.4-0.9-0.6-2-0.6-3.5c0-1.4,0.2-2.6,0.6-3.5c1.2-0.6,2.6-1,4.5-1s3.2,0.3,4.3,1
	c0.4,0.9,0.6,2.1,0.6,3.5c0,1.4-0.2,2.6-0.6,3.5c-0.9,0.6-2.4,1-4.3,1C298.6,186.6,297.1,186.3,296,185.7z"/>
</svg>
